# xmcd CD database file
#
# Track frame offsets:
#	150
#	10531
#	24549
#	39425
#	57115
#	69927
#	83544
#	96633
#	109899
#	123535
#	142416
#	163380
#	181244
#	194159
#	212080
#	222663
#
# Disc length: 3176 seconds
#
# Revision: 0
# Processed by: cddbd v1.5.1PL0 Copyright (c) Steve Scherf et al.
# Submitted via: Feurio! 1.68 - http://www.feurio.com
#
DISCID=f20c6610
DTITLE=Various Artist - Tänze 2005
DYEAR=1900
DGENRE=
TTITLE0=Elvis Presley - Devil In Disguise
TTITLE1=Dean Brothers - Devil in disguise
TTITLE2=LD - Nu flow
TTITLE3=Keith Urban - Somebody likes you
TTITLE4=DIVERSE - Black horse
TTITLE5=Joni HARMS - - Side by side
TTITLE6=Hal Ketchum - Stay Forever
TTITLE7=Paparizou Elena - You're My Number One
TTITLE8=Dolly Parton - 9 TO 5
TTITLE9=TINA TURNER and ROD STEWART - IT TAKES TWO
TTITLE10=LD - Do your think
TTITLE11=Various Artist - Laura Pausini - Surrender(Ultamix)
TTITLE12=Various Artist - BOBBIE SUE - Track 00
TTITLE13=Various Artist - From this Moment - Shania Twain
TTITLE14=Hermes House Band - Rama Lama Ding Dong
TTITLE15=Party for to - Party for to
EXTD=
EXTT0=
EXTT1=
EXTT2=
EXTT3=
EXTT4=
EXTT5=
EXTT6=
EXTT7=
EXTT8=
EXTT9=
EXTT10=
EXTT11=
EXTT12=
EXTT13=
EXTT14=
EXTT15=
PLAYORDER=
